<?xml version="1.0" encoding="UTF-8" standalone="no"?>
<svg
   viewBox="0 0 512 512"
   class="ionicon"
   version="1.1"
   id="svg2"
   sodipodi:docname="mic.svg"
   inkscape:version="1.4.3 (0d15f75, 2025-12-25)"
   xmlns:inkscape="http://www.inkscape.org/namespaces/inkscape"
   xmlns:sodipodi="http://sodipodi.sourceforge.net/DTD/sodipodi-0.dtd"
   xmlns="http://www.w3.org/2000/svg"
   xmlns:svg="http://www.w3.org/2000/svg">
  <defs
     id="defs2" />
  <sodipodi:namedview
     id="namedview2"
     pagecolor="#ffffff"
     bordercolor="#000000"
     borderopacity="0.25"
     inkscape:showpageshadow="2"
     inkscape:pageopacity="0.0"
     inkscape:pagecheckerboard="0"
     inkscape:deskcolor="#d1d1d1"
     inkscape:zoom="1.1808131"
     inkscape:cx="206.21384"
     inkscape:cy="290.05437"
     inkscape:window-width="1920"
     inkscape:window-height="1057"
     inkscape:window-x="-8"
     inkscape:window-y="-8"
     inkscape:window-maximized="1"
     inkscape:current-layer="svg2" />
  <g
     id="g1"
     transform="matrix(0.875,0,0,0.87499873,32,32.00059)">
    <path
       style="baseline-shift:baseline;display:inline;overflow:visible;opacity:1;vector-effect:none;fill:currentColor;stroke-linecap:round;stroke-linejoin:round;enable-background:accumulate;stop-color:#000000;stop-opacity:1"
       d="m 128,192 a 16,16 0 0 0 -16,16 v 32 c 0,73.71546 56.32161,134.99864 128,143.04492 V 432 h -48 a 16,16 0 0 0 -16,16 16,16 0 0 0 16,16 h 64 64 a 16,16 0 0 0 16,-16 16,16 0 0 0 -16,-16 H 272 V 383.04492 C 343.67839,374.99864 400,313.71546 400,240 v -32 a 16,16 0 0 0 -16,-16 16,16 0 0 0 -16,16 v 32 c 0,61.67273 -50.32727,112 -112,112 -61.67273,0 -112,-50.32727 -112,-112 v -32 a 16,16 0 0 0 -16,-16 z"
       id="path1" />
    <path
       d="M 256,320 A 78.83,78.83 0 0 1 199.45,295.9 80.9,80.9 0 0 1 176,239 V 128 a 79.69,79.69 0 0 1 80,-80 c 44.86,0 80,35.14 80,80 v 111 c 0,44.66 -35.89,81 -80,81"
       id="path2" />
  </g>
</svg>
